<svg xmlns="http://www.w3.org/2000/svg" width="375" viewBox="0 0 375 375" height="375" version="1.0"><path fill="#F2E2E2" d="M 286.8125 272.101562 C 283.621094 270.753906 280.320312 269.863281 276.96875 269.425781 L 276.96875 239.675781 C 291.78125 233.339844 302.136719 218.640625 302.136719 201.515625 C 302.136719 184.398438 291.769531 169.710938 276.96875 163.351562 C 272.578125 161.480469 267.8125 160.332031 262.800781 160.066406 C 263.601562 158.996094 264.34375 157.882812 265.082031 156.78125 C 274.699219 142.15625 280.300781 124.667969 280.300781 105.847656 C 280.300781 105.386719 280.300781 104.925781 280.289062 104.476562 C 282.089844 102.648438 283.757812 100.675781 285.269531 98.601562 C 301.742188 89.789062 312.945312 72.425781 312.945312 52.453125 C 312.945312 23.550781 289.511719 0.128906 260.59375 0.128906 C 244.398438 0.128906 229.921875 7.480469 220.324219 19.03125 C 210.097656 15.15625 199.011719 13.027344 187.421875 13.027344 C 175.847656 13.027344 164.761719 15.148438 154.53125 19.03125 C 144.9375 7.472656 130.457031 0.117188 114.261719 0.117188 C 85.347656 0.117188 61.914062 23.539062 61.914062 52.441406 C 61.914062 72.417969 73.117188 89.78125 89.585938 98.589844 C 91.109375 100.667969 92.769531 102.625 94.566406 104.457031 C 94.558594 104.914062 94.558594 105.375 94.558594 105.835938 C 94.558594 124.644531 100.160156 142.136719 109.777344 156.769531 C 110.503906 157.882812 111.265625 158.996094 112.058594 160.054688 C 107.042969 160.324219 102.277344 161.480469 97.886719 163.34375 C 83.085938 169.699219 72.71875 184.386719 72.71875 201.503906 C 72.71875 218.632812 83.074219 233.316406 97.886719 239.667969 L 97.886719 269.425781 C 94.535156 269.875 91.246094 270.742188 88.054688 272.101562 C 62.78125 282.804688 53.914062 318.933594 64.621094 344.1875 C 65.597656 346.476562 66.699219 348.660156 67.953125 350.707031 C 80.441406 371.195312 106.230469 380.109375 129.03125 370.851562 C 129.289062 370.753906 129.523438 370.660156 129.761719 370.550781 C 139.453125 366.441406 147.164062 359.644531 152.371094 351.371094 C 163.132812 355.949219 174.988281 358.488281 187.421875 358.488281 C 199.859375 358.488281 211.714844 355.960938 222.476562 351.371094 C 227.691406 359.632812 235.402344 366.441406 245.097656 370.550781 C 245.332031 370.648438 245.578125 370.746094 245.8125 370.851562 C 268.617188 380.101562 294.40625 371.195312 306.894531 350.707031 C 308.144531 348.648438 309.269531 346.476562 310.246094 344.1875 C 320.945312 318.933594 312.078125 282.796875 286.8125 272.101562 Z M 286.8125 272.101562"/><path fill="#FFBA35" d="M 276.96875 163.351562 L 276.96875 269.425781 C 276.9375 274.371094 276.519531 279.210938 275.726562 283.941406 C 275 288.285156 273.949219 292.515625 272.621094 296.625 C 264.621094 321.320312 246.179688 341.308594 222.488281 351.390625 C 211.722656 355.972656 199.867188 358.507812 187.433594 358.507812 C 175 358.507812 163.144531 355.984375 152.378906 351.390625 C 128.691406 341.296875 110.246094 321.308594 102.246094 296.625 C 100.90625 292.515625 99.867188 288.285156 99.140625 283.941406 C 98.347656 279.21875 97.929688 274.382812 97.898438 269.425781 L 97.898438 163.351562 C 102.289062 161.480469 107.054688 160.332031 112.066406 160.066406 C 111.273438 158.996094 110.527344 157.882812 109.785156 156.78125 L 265.09375 156.78125 C 264.363281 157.894531 263.613281 159.007812 262.8125 160.066406 C 267.8125 160.332031 272.578125 161.480469 276.96875 163.351562 Z M 276.96875 163.351562"/><path fill="#FA643F" d="M 273.347656 307.886719 C 273.347656 332.773438 262.757812 355.191406 245.8125 370.863281 C 245.578125 370.765625 245.332031 370.667969 245.097656 370.5625 C 235.402344 366.453125 227.691406 359.65625 222.476562 351.378906 C 211.714844 355.960938 199.859375 358.5 187.421875 358.5 C 174.988281 358.5 163.132812 355.972656 152.371094 351.378906 C 147.164062 359.644531 139.453125 366.453125 129.761719 370.5625 C 129.523438 370.660156 129.277344 370.753906 129.03125 370.863281 C 112.101562 355.179688 101.496094 332.773438 101.496094 307.886719 C 101.496094 304.066406 101.753906 300.308594 102.226562 296.625 C 102.847656 291.90625 103.84375 287.300781 105.203125 282.859375 C 106.59375 278.257812 108.371094 273.835938 110.484375 269.597656 C 124.566406 241.378906 153.730469 222.003906 187.421875 222.003906 C 221.117188 222.003906 250.28125 241.378906 264.363281 269.597656 C 266.472656 273.824219 268.25 278.257812 269.65625 282.859375 C 271.003906 287.300781 272 291.90625 272.621094 296.625 C 273.101562 300.308594 273.347656 304.054688 273.347656 307.886719 Z M 273.347656 307.886719"/><path fill="#FFBA35" d="M 166.613281 52.441406 C 166.613281 54.15625 166.53125 55.863281 166.363281 57.570312 C 166.195312 59.277344 165.941406 60.96875 165.609375 62.648438 C 165.273438 64.332031 164.855469 65.992188 164.359375 67.628906 C 163.863281 69.269531 163.285156 70.882812 162.628906 72.464844 C 161.972656 74.046875 161.242188 75.597656 160.433594 77.105469 C 159.625 78.617188 158.742188 80.085938 157.792969 81.511719 C 156.839844 82.9375 155.820312 84.3125 154.730469 85.636719 C 153.644531 86.960938 152.492188 88.230469 151.28125 89.441406 C 150.066406 90.652344 148.800781 91.800781 147.472656 92.890625 C 146.148438 93.976562 144.773438 94.996094 143.347656 95.949219 C 141.921875 96.898438 140.453125 97.78125 138.941406 98.585938 C 137.429688 99.394531 135.882812 100.128906 134.296875 100.78125 C 132.714844 101.4375 131.101562 102.015625 129.460938 102.511719 C 127.820312 103.011719 126.15625 103.425781 124.476562 103.761719 C 122.792969 104.09375 121.101562 104.347656 119.394531 104.515625 C 117.6875 104.683594 115.976562 104.765625 114.261719 104.765625 C 112.546875 104.765625 110.839844 104.683594 109.132812 104.515625 C 107.425781 104.347656 105.730469 104.09375 104.050781 103.761719 C 102.367188 103.425781 100.707031 103.011719 99.066406 102.511719 C 97.425781 102.015625 95.8125 101.4375 94.230469 100.78125 C 92.644531 100.128906 91.097656 99.394531 89.585938 98.585938 C 88.074219 97.78125 86.605469 96.898438 85.179688 95.949219 C 83.753906 94.996094 82.378906 93.976562 81.050781 92.890625 C 79.726562 91.800781 78.457031 90.652344 77.246094 89.441406 C 76.035156 88.230469 74.882812 86.960938 73.796875 85.636719 C 72.707031 84.3125 71.6875 82.9375 70.734375 81.511719 C 69.78125 80.085938 68.902344 78.617188 68.09375 77.105469 C 67.285156 75.597656 66.554688 74.046875 65.898438 72.464844 C 65.242188 70.882812 64.664062 69.269531 64.167969 67.628906 C 63.667969 65.992188 63.253906 64.332031 62.917969 62.648438 C 62.585938 60.96875 62.332031 59.277344 62.164062 57.570312 C 61.996094 55.863281 61.914062 54.15625 61.914062 52.441406 C 61.914062 50.726562 61.996094 49.019531 62.164062 47.3125 C 62.332031 45.609375 62.585938 43.914062 62.917969 42.234375 C 63.253906 40.554688 63.667969 38.894531 64.167969 37.253906 C 64.664062 35.613281 65.242188 34 65.898438 32.417969 C 66.554688 30.835938 67.285156 29.289062 68.09375 27.777344 C 68.902344 26.265625 69.78125 24.796875 70.734375 23.371094 C 71.6875 21.945312 72.707031 20.570312 73.796875 19.246094 C 74.882812 17.921875 76.035156 16.65625 77.246094 15.441406 C 78.457031 14.230469 79.726562 13.082031 81.050781 11.996094 C 82.378906 10.90625 83.753906 9.886719 85.179688 8.9375 C 86.605469 7.984375 88.074219 7.105469 89.585938 6.296875 C 91.097656 5.488281 92.644531 4.757812 94.230469 4.101562 C 95.8125 3.445312 97.425781 2.867188 99.066406 2.371094 C 100.707031 1.875 102.367188 1.457031 104.050781 1.121094 C 105.730469 0.789062 107.425781 0.539062 109.132812 0.371094 C 110.839844 0.203125 112.546875 0.117188 114.261719 0.117188 C 115.976562 0.117188 117.6875 0.203125 119.394531 0.371094 C 121.101562 0.539062 122.792969 0.789062 124.476562 1.121094 C 126.15625 1.457031 127.820312 1.875 129.460938 2.371094 C 131.101562 2.867188 132.714844 3.445312 134.296875 4.101562 C 135.882812 4.757812 137.429688 5.488281 138.941406 6.296875 C 140.453125 7.105469 141.921875 7.984375 143.347656 8.9375 C 144.773438 9.886719 146.148438 10.90625 147.472656 11.996094 C 148.800781 13.082031 150.066406 14.230469 151.28125 15.441406 C 152.492188 16.65625 153.644531 17.921875 154.730469 19.246094 C 155.820312 20.570312 156.839844 21.945312 157.792969 23.371094 C 158.742188 24.796875 159.625 26.265625 160.433594 27.777344 C 161.242188 29.289062 161.972656 30.835938 162.628906 32.417969 C 163.285156 34 163.863281 35.613281 164.359375 37.253906 C 164.855469 38.894531 165.273438 40.554688 165.609375 42.234375 C 165.941406 43.914062 166.195312 45.609375 166.363281 47.3125 C 166.53125 49.019531 166.613281 50.726562 166.613281 52.441406 Z M 166.613281 52.441406"/><path fill="#FA643F" d="M 184.253906 67.804688 C 184.253906 69.515625 184.167969 71.226562 184 72.929688 C 183.832031 74.636719 183.582031 76.332031 183.246094 78.011719 C 182.914062 79.691406 182.496094 81.351562 182 82.992188 C 181.5 84.632812 180.925781 86.242188 180.269531 87.828125 C 179.613281 89.410156 178.878906 90.957031 178.070312 92.46875 C 177.261719 93.980469 176.382812 95.449219 175.429688 96.871094 C 174.476562 98.296875 173.457031 99.671875 172.371094 100.996094 C 171.28125 102.320312 170.132812 103.589844 168.921875 104.800781 C 167.707031 106.011719 166.4375 107.164062 165.113281 108.25 C 163.789062 109.335938 162.414062 110.355469 160.988281 111.308594 C 159.5625 112.261719 158.09375 113.140625 156.582031 113.949219 C 155.070312 114.757812 153.519531 115.488281 151.9375 116.144531 C 150.351562 116.800781 148.738281 117.375 147.097656 117.875 C 145.457031 118.371094 143.796875 118.789062 142.117188 119.121094 C 140.433594 119.457031 138.738281 119.707031 137.035156 119.875 C 135.328125 120.042969 133.617188 120.128906 131.902344 120.128906 C 130.1875 120.128906 128.476562 120.042969 126.769531 119.875 C 125.066406 119.707031 123.371094 119.457031 121.691406 119.121094 C 120.007812 118.789062 118.347656 118.371094 116.707031 117.875 C 115.066406 117.375 113.453125 116.800781 111.867188 116.144531 C 110.285156 115.488281 108.738281 114.757812 107.226562 113.949219 C 105.710938 113.140625 104.242188 112.261719 102.816406 111.308594 C 101.394531 110.355469 100.015625 109.335938 98.691406 108.25 C 97.367188 107.164062 96.097656 106.011719 94.886719 104.800781 C 93.671875 103.589844 92.523438 102.320312 91.433594 100.996094 C 90.347656 99.671875 89.328125 98.296875 88.375 96.871094 C 87.421875 95.449219 86.542969 93.980469 85.734375 92.46875 C 84.925781 90.957031 84.191406 89.410156 83.539062 87.828125 C 82.882812 86.242188 82.304688 84.632812 81.804688 82.992188 C 81.308594 81.351562 80.894531 79.691406 80.558594 78.011719 C 80.222656 76.332031 79.972656 74.636719 79.804688 72.929688 C 79.636719 71.226562 79.550781 69.515625 79.550781 67.804688 C 79.550781 66.089844 79.636719 64.378906 79.804688 62.675781 C 79.972656 60.96875 80.222656 59.277344 80.558594 57.59375 C 80.894531 55.914062 81.308594 54.253906 81.804688 52.613281 C 82.304688 50.972656 82.882812 49.363281 83.539062 47.777344 C 84.191406 46.195312 84.925781 44.648438 85.734375 43.136719 C 86.542969 41.625 87.421875 40.15625 88.375 38.734375 C 89.328125 37.308594 90.347656 35.933594 91.433594 34.609375 C 92.523438 33.285156 93.671875 32.015625 94.886719 30.804688 C 96.097656 29.59375 97.367188 28.441406 98.691406 27.355469 C 100.015625 26.269531 101.394531 25.25 102.816406 24.296875 C 104.242188 23.34375 105.710938 22.464844 107.226562 21.65625 C 108.738281 20.847656 110.285156 20.117188 111.867188 19.460938 C 113.453125 18.804688 115.066406 18.230469 116.707031 17.730469 C 118.347656 17.234375 120.007812 16.816406 121.691406 16.484375 C 123.371094 16.148438 125.066406 15.898438 126.769531 15.730469 C 128.476562 15.5625 130.1875 15.480469 131.902344 15.480469 C 133.617188 15.480469 135.328125 15.5625 137.035156 15.730469 C 138.738281 15.898438 140.433594 16.148438 142.117188 16.484375 C 143.796875 16.816406 145.457031 17.234375 147.097656 17.730469 C 148.738281 18.230469 150.351562 18.804688 151.9375 19.460938 C 153.519531 20.117188 155.070312 20.847656 156.582031 21.65625 C 158.09375 22.464844 159.5625 23.34375 160.988281 24.296875 C 162.414062 25.25 163.789062 26.269531 165.113281 27.355469 C 166.4375 28.441406 167.707031 29.59375 168.921875 30.804688 C 170.132812 32.015625 171.28125 33.285156 172.371094 34.609375 C 173.457031 35.933594 174.476562 37.308594 175.429688 38.734375 C 176.382812 40.15625 177.261719 41.625 178.070312 43.136719 C 178.878906 44.648438 179.613281 46.195312 180.269531 47.777344 C 180.925781 49.363281 181.5 50.972656 182 52.613281 C 182.496094 54.253906 182.914062 55.914062 183.246094 57.59375 C 183.582031 59.277344 183.832031 60.96875 184 62.675781 C 184.167969 64.378906 184.253906 66.089844 184.253906 67.804688 Z M 184.253906 67.804688"/><path fill="#FFBA35" d="M 312.945312 52.441406 C 312.945312 54.15625 312.859375 55.863281 312.691406 57.570312 C 312.523438 59.277344 312.273438 60.96875 311.9375 62.648438 C 311.605469 64.332031 311.1875 65.992188 310.691406 67.628906 C 310.191406 69.269531 309.617188 70.882812 308.960938 72.464844 C 308.304688 74.046875 307.570312 75.597656 306.761719 77.105469 C 305.953125 78.617188 305.074219 80.085938 304.121094 81.511719 C 303.167969 82.9375 302.148438 84.3125 301.0625 85.636719 C 299.972656 86.960938 298.824219 88.230469 297.609375 89.441406 C 296.398438 90.652344 295.128906 91.800781 293.804688 92.890625 C 292.480469 93.976562 291.105469 94.996094 289.679688 95.949219 C 288.253906 96.898438 286.785156 97.78125 285.273438 98.585938 C 283.757812 99.394531 282.210938 100.128906 280.628906 100.78125 C 279.042969 101.4375 277.429688 102.015625 275.789062 102.511719 C 274.148438 103.011719 272.488281 103.425781 270.808594 103.761719 C 269.125 104.09375 267.429688 104.347656 265.726562 104.515625 C 264.019531 104.683594 262.308594 104.765625 260.59375 104.765625 C 258.878906 104.765625 257.167969 104.683594 255.460938 104.515625 C 253.757812 104.347656 252.0625 104.09375 250.378906 103.761719 C 248.699219 103.425781 247.039062 103.011719 245.398438 102.511719 C 243.757812 102.015625 242.144531 101.4375 240.558594 100.78125 C 238.976562 100.128906 237.429688 99.394531 235.917969 98.585938 C 234.402344 97.78125 232.933594 96.898438 231.507812 95.949219 C 230.082031 94.996094 228.707031 93.976562 227.382812 92.890625 C 226.058594 91.800781 224.789062 90.652344 223.578125 89.441406 C 222.363281 88.230469 221.214844 86.960938 220.125 85.636719 C 219.039062 84.3125 218.019531 82.9375 217.066406 81.511719 C 216.113281 80.085938 215.234375 78.617188 214.425781 77.105469 C 213.617188 75.597656 212.882812 74.046875 212.226562 72.464844 C 211.570312 70.882812 210.996094 69.269531 210.496094 67.628906 C 210 65.992188 209.582031 64.332031 209.25 62.648438 C 208.914062 60.96875 208.664062 59.277344 208.496094 57.570312 C 208.328125 55.863281 208.242188 54.15625 208.242188 52.441406 C 208.242188 50.726562 208.328125 49.019531 208.496094 47.3125 C 208.664062 45.609375 208.914062 43.914062 209.25 42.234375 C 209.582031 40.554688 210 38.894531 210.496094 37.253906 C 210.996094 35.613281 211.570312 34 212.226562 32.417969 C 212.882812 30.835938 213.617188 29.289062 214.425781 27.777344 C 215.234375 26.265625 216.113281 24.796875 217.066406 23.371094 C 218.019531 21.945312 219.039062 20.570312 220.125 19.246094 C 221.214844 17.921875 222.363281 16.65625 223.578125 15.441406 C 224.789062 14.230469 226.058594 13.082031 227.382812 11.996094 C 228.707031 10.90625 230.082031 9.886719 231.507812 8.9375 C 232.933594 7.984375 234.402344 7.105469 235.917969 6.296875 C 237.429688 5.488281 238.976562 4.757812 240.558594 4.101562 C 242.144531 3.445312 243.757812 2.867188 245.398438 2.371094 C 247.039062 1.875 248.699219 1.457031 250.378906 1.121094 C 252.0625 0.789062 253.757812 0.539062 255.460938 0.371094 C 257.167969 0.203125 258.878906 0.117188 260.59375 0.117188 C 262.308594 0.117188 264.019531 0.203125 265.726562 0.371094 C 267.429688 0.539062 269.125 0.789062 270.808594 1.121094 C 272.488281 1.457031 274.148438 1.875 275.789062 2.371094 C 277.429688 2.867188 279.042969 3.445312 280.628906 4.101562 C 282.210938 4.757812 283.757812 5.488281 285.273438 6.296875 C 286.785156 7.105469 288.253906 7.984375 289.679688 8.9375 C 291.105469 9.886719 292.480469 10.90625 293.804688 11.996094 C 295.128906 13.082031 296.398438 14.230469 297.609375 15.441406 C 298.824219 16.65625 299.972656 17.921875 301.0625 19.246094 C 302.148438 20.570312 303.167969 21.945312 304.121094 23.371094 C 305.074219 24.796875 305.953125 26.265625 306.761719 27.777344 C 307.570312 29.289062 308.304688 30.835938 308.960938 32.417969 C 309.617188 34 310.191406 35.613281 310.691406 37.253906 C 311.1875 38.894531 311.605469 40.554688 311.9375 42.234375 C 312.273438 43.914062 312.523438 45.609375 312.691406 47.3125 C 312.859375 49.019531 312.945312 50.726562 312.945312 52.441406 Z M 312.945312 52.441406"/><path fill="#FA643F" d="M 295.304688 67.804688 C 295.304688 69.515625 295.222656 71.226562 295.054688 72.929688 C 294.886719 74.636719 294.632812 76.332031 294.300781 78.011719 C 293.964844 79.691406 293.546875 81.351562 293.050781 82.992188 C 292.554688 84.632812 291.976562 86.242188 291.320312 87.828125 C 290.664062 89.410156 289.933594 90.957031 289.125 92.46875 C 288.316406 93.980469 287.433594 95.449219 286.480469 96.871094 C 285.53125 98.296875 284.507812 99.671875 283.421875 100.996094 C 282.335938 102.320312 281.183594 103.589844 279.972656 104.800781 C 278.757812 106.011719 277.492188 107.164062 276.164062 108.25 C 274.839844 109.335938 273.464844 110.355469 272.039062 111.308594 C 270.613281 112.261719 269.144531 113.140625 267.632812 113.949219 C 266.121094 114.757812 264.570312 115.488281 262.988281 116.144531 C 261.402344 116.800781 259.792969 117.375 258.152344 117.875 C 256.511719 118.371094 254.847656 118.789062 253.167969 119.121094 C 251.484375 119.457031 249.792969 119.707031 248.085938 119.875 C 246.378906 120.042969 244.667969 120.128906 242.953125 120.128906 C 241.238281 120.128906 239.53125 120.042969 237.824219 119.875 C 236.117188 119.707031 234.421875 119.457031 232.742188 119.121094 C 231.058594 118.789062 229.398438 118.371094 227.757812 117.875 C 226.117188 117.375 224.503906 116.800781 222.921875 116.144531 C 221.335938 115.488281 219.789062 114.757812 218.277344 113.949219 C 216.765625 113.140625 215.296875 112.261719 213.871094 111.308594 C 212.445312 110.355469 211.070312 109.335938 209.742188 108.25 C 208.417969 107.164062 207.148438 106.011719 205.9375 104.800781 C 204.726562 103.589844 203.574219 102.320312 202.488281 100.996094 C 201.398438 99.671875 200.378906 98.296875 199.425781 96.871094 C 198.472656 95.449219 197.59375 93.980469 196.785156 92.46875 C 195.976562 90.957031 195.246094 89.410156 194.589844 87.828125 C 193.933594 86.242188 193.355469 84.632812 192.859375 82.992188 C 192.359375 81.351562 191.945312 79.691406 191.609375 78.011719 C 191.277344 76.332031 191.023438 74.636719 190.855469 72.929688 C 190.6875 71.226562 190.605469 69.515625 190.605469 67.804688 C 190.605469 66.089844 190.6875 64.378906 190.855469 62.675781 C 191.023438 60.96875 191.277344 59.277344 191.609375 57.59375 C 191.945312 55.914062 192.359375 54.253906 192.859375 52.613281 C 193.355469 50.972656 193.933594 49.363281 194.589844 47.777344 C 195.246094 46.195312 195.976562 44.648438 196.785156 43.136719 C 197.59375 41.625 198.472656 40.15625 199.425781 38.734375 C 200.378906 37.308594 201.398438 35.933594 202.488281 34.609375 C 203.574219 33.285156 204.726562 32.015625 205.9375 30.804688 C 207.148438 29.59375 208.417969 28.441406 209.742188 27.355469 C 211.070312 26.269531 212.445312 25.25 213.871094 24.296875 C 215.296875 23.34375 216.765625 22.464844 218.277344 21.65625 C 219.789062 20.847656 221.335938 20.117188 222.921875 19.460938 C 224.503906 18.804688 226.117188 18.230469 227.757812 17.730469 C 229.398438 17.234375 231.058594 16.816406 232.742188 16.484375 C 234.421875 16.148438 236.117188 15.898438 237.824219 15.730469 C 239.53125 15.5625 241.238281 15.480469 242.953125 15.480469 C 244.667969 15.480469 246.378906 15.5625 248.085938 15.730469 C 249.792969 15.898438 251.484375 16.148438 253.167969 16.484375 C 254.847656 16.816406 256.511719 17.234375 258.152344 17.730469 C 259.792969 18.230469 261.402344 18.804688 262.988281 19.460938 C 264.570312 20.117188 266.121094 20.847656 267.632812 21.65625 C 269.144531 22.464844 270.613281 23.34375 272.039062 24.296875 C 273.464844 25.25 274.839844 26.269531 276.164062 27.355469 C 277.492188 28.441406 278.757812 29.59375 279.972656 30.804688 C 281.183594 32.015625 282.335938 33.285156 283.421875 34.609375 C 284.507812 35.933594 285.53125 37.308594 286.480469 38.734375 C 287.433594 40.15625 288.316406 41.625 289.125 43.136719 C 289.933594 44.648438 290.664062 46.195312 291.320312 47.777344 C 291.976562 49.363281 292.554688 50.972656 293.050781 52.613281 C 293.546875 54.253906 293.964844 55.914062 294.300781 57.59375 C 294.632812 59.277344 294.886719 60.96875 295.054688 62.675781 C 295.222656 64.378906 295.304688 66.089844 295.304688 67.804688 Z M 295.304688 67.804688"/><path fill="#FFBA35" d="M 280.300781 105.847656 C 280.300781 124.65625 274.699219 142.148438 265.082031 156.78125 C 264.351562 157.894531 263.601562 159.007812 262.800781 160.066406 C 261.890625 161.363281 260.914062 162.636719 259.917969 163.878906 C 249.550781 176.808594 235.777344 186.914062 219.972656 192.8125 C 209.839844 196.613281 198.882812 198.679688 187.433594 198.679688 C 175.984375 198.679688 165.027344 196.613281 154.898438 192.8125 C 139.089844 186.902344 125.316406 176.796875 114.949219 163.855469 C 113.953125 162.613281 112.976562 161.351562 112.066406 160.054688 C 111.273438 158.984375 110.527344 157.871094 109.785156 156.769531 C 100.167969 142.148438 94.566406 124.65625 94.566406 105.835938 C 94.566406 105.375 94.566406 104.90625 94.578125 104.445312 C 94.589844 103.277344 94.632812 102.121094 94.695312 100.976562 C 96.59375 64.109375 120.035156 32.925781 152.679688 19.75 C 153.300781 19.480469 153.933594 19.246094 154.554688 19.023438 C 164.78125 15.136719 175.867188 13.015625 187.445312 13.015625 C 199.03125 13.015625 210.117188 15.136719 220.347656 19.023438 C 220.976562 19.246094 221.597656 19.503906 222.21875 19.75 C 254.875 32.925781 278.296875 64.109375 280.191406 100.976562 C 280.246094 102.132812 280.289062 103.300781 280.3125 104.464844 C 280.300781 104.914062 280.300781 105.375 280.300781 105.847656 Z M 280.300781 105.847656"/><path fill="#FA643F" d="M 200.382812 107.183594 C 200.382812 108.035156 200.300781 108.875 200.132812 109.710938 C 199.96875 110.542969 199.722656 111.351562 199.398438 112.136719 C 199.070312 112.921875 198.671875 113.667969 198.199219 114.375 C 197.726562 115.082031 197.191406 115.734375 196.589844 116.335938 C 195.988281 116.9375 195.335938 117.472656 194.628906 117.945312 C 193.921875 118.417969 193.175781 118.816406 192.390625 119.140625 C 191.605469 119.46875 190.792969 119.710938 189.960938 119.878906 C 189.125 120.042969 188.285156 120.128906 187.433594 120.128906 C 186.582031 120.128906 185.742188 120.042969 184.90625 119.878906 C 184.074219 119.710938 183.265625 119.46875 182.480469 119.140625 C 181.691406 118.816406 180.945312 118.417969 180.238281 117.945312 C 179.535156 117.472656 178.878906 116.9375 178.277344 116.335938 C 177.675781 115.734375 177.140625 115.082031 176.667969 114.375 C 176.195312 113.667969 175.796875 112.921875 175.472656 112.136719 C 175.144531 111.351562 174.898438 110.542969 174.734375 109.710938 C 174.570312 108.875 174.484375 108.035156 174.484375 107.183594 C 174.484375 106.335938 174.570312 105.492188 174.734375 104.660156 C 174.898438 103.828125 175.144531 103.019531 175.472656 102.234375 C 175.796875 101.449219 176.195312 100.703125 176.667969 99.996094 C 177.140625 99.289062 177.675781 98.636719 178.277344 98.035156 C 178.878906 97.433594 179.535156 96.898438 180.238281 96.425781 C 180.945312 95.953125 181.691406 95.554688 182.480469 95.230469 C 183.265625 94.902344 184.074219 94.65625 184.90625 94.492188 C 185.742188 94.328125 186.582031 94.242188 187.433594 94.242188 C 188.285156 94.242188 189.125 94.328125 189.960938 94.492188 C 190.792969 94.65625 191.605469 94.902344 192.390625 95.230469 C 193.175781 95.554688 193.921875 95.953125 194.628906 96.425781 C 195.335938 96.898438 195.988281 97.433594 196.589844 98.035156 C 197.191406 98.636719 197.726562 99.289062 198.199219 99.996094 C 198.671875 100.703125 199.070312 101.449219 199.398438 102.234375 C 199.722656 103.019531 199.96875 103.828125 200.132812 104.660156 C 200.300781 105.492188 200.382812 106.335938 200.382812 107.183594 Z M 200.382812 107.183594"/><path fill="#FA643F" d="M 162.351562 83.582031 C 162.351562 84 162.308594 84.417969 162.226562 84.832031 C 162.144531 85.242188 162.023438 85.644531 161.863281 86.03125 C 161.703125 86.417969 161.503906 86.789062 161.273438 87.136719 C 161.039062 87.488281 160.773438 87.8125 160.476562 88.109375 C 160.179688 88.40625 159.855469 88.671875 159.503906 88.902344 C 159.15625 89.136719 158.785156 89.335938 158.398438 89.496094 C 158.007812 89.65625 157.609375 89.777344 157.195312 89.859375 C 156.785156 89.941406 156.367188 89.984375 155.945312 89.984375 C 155.527344 89.984375 155.109375 89.941406 154.695312 89.859375 C 154.285156 89.777344 153.882812 89.65625 153.496094 89.496094 C 153.105469 89.335938 152.738281 89.136719 152.386719 88.902344 C 152.039062 88.671875 151.714844 88.40625 151.417969 88.109375 C 151.121094 87.8125 150.855469 87.488281 150.621094 87.136719 C 150.386719 86.789062 150.191406 86.417969 150.03125 86.03125 C 149.867188 85.644531 149.746094 85.242188 149.664062 84.832031 C 149.582031 84.417969 149.542969 84 149.542969 83.582031 C 149.542969 83.160156 149.582031 82.746094 149.664062 82.332031 C 149.746094 81.921875 149.867188 81.519531 150.03125 81.132812 C 150.191406 80.742188 150.386719 80.375 150.621094 80.023438 C 150.855469 79.675781 151.121094 79.351562 151.417969 79.054688 C 151.714844 78.757812 152.039062 78.492188 152.386719 78.257812 C 152.738281 78.027344 153.105469 77.828125 153.496094 77.667969 C 153.882812 77.507812 154.285156 77.386719 154.695312 77.304688 C 155.109375 77.222656 155.527344 77.179688 155.945312 77.179688 C 156.367188 77.179688 156.785156 77.222656 157.195312 77.304688 C 157.609375 77.386719 158.007812 77.507812 158.398438 77.667969 C 158.785156 77.828125 159.15625 78.027344 159.503906 78.257812 C 159.855469 78.492188 160.179688 78.757812 160.476562 79.054688 C 160.773438 79.351562 161.039062 79.675781 161.273438 80.023438 C 161.503906 80.375 161.703125 80.742188 161.863281 81.132812 C 162.023438 81.519531 162.144531 81.921875 162.226562 82.332031 C 162.308594 82.746094 162.351562 83.160156 162.351562 83.582031 Z M 162.351562 83.582031"/><path fill="#FA643F" d="M 225.316406 83.582031 C 225.316406 84 225.273438 84.417969 225.191406 84.832031 C 225.109375 85.242188 224.988281 85.644531 224.828125 86.03125 C 224.667969 86.417969 224.46875 86.789062 224.234375 87.136719 C 224.003906 87.488281 223.738281 87.8125 223.4375 88.109375 C 223.140625 88.40625 222.820312 88.671875 222.46875 88.902344 C 222.117188 89.136719 221.75 89.335938 221.363281 89.496094 C 220.972656 89.65625 220.574219 89.777344 220.160156 89.859375 C 219.746094 89.941406 219.332031 89.984375 218.910156 89.984375 C 218.488281 89.984375 218.074219 89.941406 217.660156 89.859375 C 217.25 89.777344 216.847656 89.65625 216.460938 89.496094 C 216.070312 89.335938 215.703125 89.136719 215.351562 88.902344 C 215.003906 88.671875 214.679688 88.40625 214.382812 88.109375 C 214.085938 87.8125 213.820312 87.488281 213.585938 87.136719 C 213.351562 86.789062 213.15625 86.417969 212.992188 86.03125 C 212.832031 85.644531 212.710938 85.242188 212.628906 84.832031 C 212.546875 84.417969 212.507812 84 212.507812 83.582031 C 212.507812 83.160156 212.546875 82.746094 212.628906 82.332031 C 212.710938 81.921875 212.832031 81.519531 212.992188 81.132812 C 213.15625 80.742188 213.351562 80.375 213.585938 80.023438 C 213.820312 79.675781 214.085938 79.351562 214.382812 79.054688 C 214.679688 78.757812 215.003906 78.492188 215.351562 78.257812 C 215.703125 78.027344 216.070312 77.828125 216.460938 77.667969 C 216.847656 77.507812 217.25 77.386719 217.660156 77.304688 C 218.074219 77.222656 218.488281 77.179688 218.910156 77.179688 C 219.332031 77.179688 219.746094 77.222656 220.160156 77.304688 C 220.574219 77.386719 220.972656 77.507812 221.363281 77.667969 C 221.75 77.828125 222.117188 78.027344 222.46875 78.257812 C 222.820312 78.492188 223.140625 78.757812 223.4375 79.054688 C 223.738281 79.351562 224.003906 79.675781 224.234375 80.023438 C 224.46875 80.375 224.667969 80.742188 224.828125 81.132812 C 224.988281 81.519531 225.109375 81.921875 225.191406 82.332031 C 225.273438 82.746094 225.316406 83.160156 225.316406 83.582031 Z M 225.316406 83.582031"/><path fill="#FA643F" d="M 188.011719 145.144531 L 186.84375 145.144531 C 185.816406 145.144531 184.980469 144.308594 184.980469 143.28125 L 184.980469 114.808594 L 189.875 114.808594 L 189.875 143.28125 C 189.875 144.308594 189.039062 145.144531 188.011719 145.144531 Z M 188.011719 145.144531"/><path fill="#FFBA35" d="M 155.808594 201.515625 C 155.808594 224.445312 137.214844 243.039062 114.261719 243.039062 C 108.960938 243.039062 103.894531 242.042969 99.226562 240.222656 C 98.777344 240.050781 98.328125 239.871094 97.886719 239.675781 C 83.074219 233.339844 72.71875 218.640625 72.71875 201.515625 C 72.71875 184.398438 83.085938 169.710938 97.886719 163.351562 C 102.277344 161.480469 107.042969 160.332031 112.058594 160.066406 C 112.785156 160.023438 113.523438 160.011719 114.261719 160.011719 C 122.261719 160.011719 129.75 162.269531 136.078125 166.210938 C 145.558594 172.042969 152.496094 181.59375 154.886719 192.8125 C 155.496094 195.628906 155.808594 198.527344 155.808594 201.515625 Z M 155.808594 201.515625"/><path fill="#FA643F" d="M 155.808594 201.515625 C 155.808594 224.445312 137.214844 243.039062 114.261719 243.039062 C 108.960938 243.039062 103.894531 242.042969 99.226562 240.222656 C 87.425781 232.910156 79.5625 219.832031 79.5625 204.929688 C 79.5625 182 98.15625 163.40625 121.105469 163.40625 C 126.398438 163.40625 131.441406 164.390625 136.089844 166.199219 C 147.925781 173.5 155.808594 186.59375 155.808594 201.515625 Z M 155.808594 201.515625"/><path fill="#FFBA35" d="M 302.136719 201.515625 C 302.136719 218.640625 291.78125 233.328125 276.96875 239.675781 C 276.53125 239.871094 276.082031 240.050781 275.628906 240.222656 C 270.960938 242.03125 265.894531 243.039062 260.59375 243.039062 C 237.652344 243.039062 219.050781 224.453125 219.050781 201.515625 C 219.050781 198.539062 219.359375 195.628906 219.960938 192.8125 C 222.347656 181.59375 229.289062 172.042969 238.765625 166.210938 C 245.097656 162.273438 252.582031 160.011719 260.582031 160.011719 C 261.332031 160.011719 262.0625 160.023438 262.789062 160.066406 C 267.800781 160.332031 272.566406 161.488281 276.957031 163.351562 C 291.769531 169.710938 302.136719 184.398438 302.136719 201.515625 Z M 302.136719 201.515625"/><path fill="#FA643F" d="M 219.058594 201.515625 C 219.058594 224.445312 237.652344 243.039062 260.605469 243.039062 C 265.90625 243.039062 270.972656 242.042969 275.640625 240.222656 C 287.445312 232.910156 295.304688 219.832031 295.304688 204.929688 C 295.304688 182 276.710938 163.40625 253.761719 163.40625 C 248.46875 163.40625 243.425781 164.390625 238.777344 166.199219 C 226.941406 173.5 219.058594 186.59375 219.058594 201.515625 Z M 219.058594 201.515625"/><path fill="#FFBA35" d="M 152.371094 351.390625 C 147.164062 359.65625 139.453125 366.460938 129.761719 370.574219 C 129.523438 370.667969 129.277344 370.765625 129.03125 370.871094 C 106.230469 380.121094 80.441406 371.214844 67.953125 350.726562 C 66.699219 348.671875 65.585938 346.5 64.621094 344.207031 C 53.914062 318.957031 62.78125 282.816406 88.054688 272.121094 C 91.246094 270.773438 94.546875 269.894531 97.886719 269.445312 C 102.03125 268.867188 106.285156 268.953125 110.492188 269.617188 C 129.78125 272.570312 148.460938 287.367188 156.140625 305.488281 C 157.113281 307.78125 157.886719 310.09375 158.484375 312.4375 C 162.019531 325.976562 159.546875 340.054688 152.371094 351.390625 Z M 152.371094 351.390625"/><path fill="#FA643F" d="M 152.371094 351.390625 C 147.164062 359.65625 139.453125 366.460938 129.761719 370.574219 C 129.523438 370.667969 129.277344 370.765625 129.03125 370.871094 C 106.230469 380.121094 80.441406 371.214844 67.953125 350.726562 C 61.429688 326.246094 70.824219 295.46875 93.828125 285.738281 C 95.574219 285.011719 97.332031 284.402344 99.128906 283.953125 C 101.132812 283.414062 103.167969 283.0625 105.222656 282.871094 C 125.59375 280.890625 147.539062 294.175781 158.496094 312.425781 C 162.019531 325.976562 159.546875 340.054688 152.371094 351.390625 Z M 152.371094 351.390625"/><path fill="#FFBA35" d="M 310.257812 344.1875 C 309.28125 346.476562 308.15625 348.660156 306.902344 350.707031 C 294.414062 371.195312 268.625 380.109375 245.824219 370.851562 C 245.589844 370.753906 245.34375 370.660156 245.105469 370.550781 C 235.414062 366.441406 227.703125 359.644531 222.488281 351.371094 C 215.3125 340.03125 212.839844 325.957031 216.371094 312.394531 C 216.972656 310.050781 217.765625 307.738281 218.738281 305.445312 C 226.40625 287.324219 245.085938 272.53125 264.375 269.574219 C 268.582031 268.910156 272.824219 268.824219 276.980469 269.402344 C 280.34375 269.84375 283.632812 270.71875 286.824219 272.078125 C 312.078125 282.796875 320.945312 318.933594 310.257812 344.1875 Z M 310.257812 344.1875"/><path fill="#FA643F" d="M 306.902344 350.714844 C 294.414062 371.203125 268.625 380.121094 245.824219 370.863281 C 245.589844 370.765625 245.34375 370.667969 245.105469 370.5625 C 235.414062 366.453125 227.703125 359.65625 222.488281 351.378906 C 215.3125 340.042969 212.839844 325.96875 216.371094 312.402344 C 227.328125 294.140625 249.292969 280.867188 269.664062 282.847656 C 271.722656 283.042969 273.746094 283.394531 275.738281 283.929688 C 277.535156 284.378906 279.316406 284.988281 281.0625 285.71875 C 304.035156 295.449219 313.449219 326.234375 306.902344 350.714844 Z M 306.902344 350.714844"/><path fill="#F2E2E2" d="M 282.132812 11.917969 C 282.613281 12.167969 283.078125 12.433594 283.527344 12.722656 C 283.972656 13.011719 284.394531 13.316406 284.792969 13.632812 C 285.191406 13.953125 285.558594 14.28125 285.890625 14.613281 C 286.222656 14.949219 286.515625 15.289062 286.769531 15.628906 C 287.023438 15.96875 287.234375 16.304688 287.402344 16.636719 C 287.570312 16.96875 287.6875 17.289062 287.761719 17.597656 C 287.835938 17.910156 287.859375 18.203125 287.835938 18.480469 C 287.808594 18.757812 287.738281 19.011719 287.617188 19.242188 C 287.496094 19.476562 287.332031 19.683594 287.117188 19.863281 C 286.90625 20.042969 286.652344 20.195312 286.359375 20.3125 C 286.0625 20.433594 285.734375 20.523438 285.367188 20.578125 C 285 20.632812 284.601562 20.65625 284.175781 20.644531 C 283.753906 20.636719 283.308594 20.589844 282.839844 20.515625 C 282.375 20.4375 281.894531 20.328125 281.40625 20.1875 C 280.917969 20.046875 280.425781 19.878906 279.929688 19.683594 C 279.433594 19.484375 278.945312 19.261719 278.464844 19.011719 C 277.984375 18.765625 277.523438 18.496094 277.074219 18.207031 C 276.625 17.917969 276.203125 17.617188 275.804688 17.296875 C 275.40625 16.980469 275.042969 16.652344 274.710938 16.316406 C 274.378906 15.980469 274.085938 15.640625 273.828125 15.300781 C 273.574219 14.960938 273.363281 14.625 273.199219 14.296875 C 273.03125 13.964844 272.910156 13.644531 272.839844 13.332031 C 272.765625 13.023438 272.742188 12.730469 272.765625 12.453125 C 272.789062 12.175781 272.863281 11.921875 272.984375 11.6875 C 273.101562 11.453125 273.269531 11.246094 273.480469 11.066406 C 273.691406 10.886719 273.945312 10.738281 274.242188 10.617188 C 274.535156 10.496094 274.867188 10.410156 275.234375 10.351562 C 275.601562 10.296875 275.996094 10.273438 276.421875 10.285156 C 276.847656 10.296875 277.292969 10.339844 277.757812 10.417969 C 278.226562 10.492188 278.703125 10.601562 279.195312 10.742188 C 279.683594 10.882812 280.175781 11.050781 280.671875 11.25 C 281.164062 11.445312 281.652344 11.671875 282.132812 11.917969 Z M 282.132812 11.917969"/><path fill="#F2E2E2" d="M 101.867188 11.699219 C 101.988281 11.933594 102.058594 12.1875 102.082031 12.464844 C 102.109375 12.742188 102.082031 13.035156 102.011719 13.347656 C 101.9375 13.65625 101.820312 13.976562 101.652344 14.308594 C 101.484375 14.640625 101.273438 14.976562 101.019531 15.316406 C 100.765625 15.65625 100.472656 15.992188 100.140625 16.328125 C 99.804688 16.664062 99.441406 16.992188 99.042969 17.308594 C 98.644531 17.628906 98.222656 17.933594 97.773438 18.222656 C 97.328125 18.511719 96.863281 18.777344 96.382812 19.027344 C 95.902344 19.273438 95.414062 19.496094 94.921875 19.695312 C 94.425781 19.894531 93.933594 20.0625 93.441406 20.203125 C 92.953125 20.34375 92.476562 20.449219 92.007812 20.527344 C 91.542969 20.605469 91.097656 20.648438 90.671875 20.660156 C 90.246094 20.667969 89.851562 20.648438 89.484375 20.589844 C 89.117188 20.535156 88.785156 20.449219 88.492188 20.328125 C 88.195312 20.207031 87.941406 20.054688 87.730469 19.875 C 87.519531 19.695312 87.351562 19.488281 87.230469 19.257812 C 87.113281 19.023438 87.039062 18.769531 87.015625 18.492188 C 86.992188 18.214844 87.015625 17.921875 87.085938 17.613281 C 87.160156 17.300781 87.28125 16.980469 87.445312 16.648438 C 87.613281 16.316406 87.824219 15.980469 88.078125 15.640625 C 88.332031 15.300781 88.628906 14.964844 88.960938 14.628906 C 89.292969 14.292969 89.65625 13.964844 90.054688 13.648438 C 90.453125 13.328125 90.875 13.027344 91.324219 12.738281 C 91.769531 12.449219 92.234375 12.179688 92.714844 11.929688 C 93.195312 11.683594 93.683594 11.460938 94.179688 11.261719 C 94.671875 11.066406 95.164062 10.894531 95.65625 10.753906 C 96.144531 10.617188 96.625 10.507812 97.089844 10.429688 C 97.554688 10.351562 98.003906 10.308594 98.425781 10.300781 C 98.851562 10.289062 99.246094 10.3125 99.613281 10.367188 C 99.980469 10.421875 100.3125 10.511719 100.609375 10.628906 C 100.902344 10.75 101.15625 10.902344 101.367188 11.082031 C 101.582031 11.261719 101.746094 11.46875 101.867188 11.699219 Z M 101.867188 11.699219"/><path fill="#F2E2E2" d="M 228.027344 32.101562 C 228.574219 32.546875 229.089844 33.015625 229.578125 33.507812 C 230.070312 33.996094 230.523438 34.5 230.9375 35.015625 C 231.355469 35.53125 231.730469 36.050781 232.058594 36.570312 C 232.386719 37.09375 232.664062 37.609375 232.890625 38.117188 C 233.117188 38.625 233.289062 39.113281 233.402344 39.589844 C 233.519531 40.0625 233.578125 40.511719 233.582031 40.933594 C 233.582031 41.355469 233.527344 41.742188 233.414062 42.097656 C 233.300781 42.453125 233.132812 42.765625 232.910156 43.035156 C 232.6875 43.308594 232.410156 43.535156 232.085938 43.714844 C 231.761719 43.894531 231.390625 44.027344 230.976562 44.109375 C 230.5625 44.1875 230.113281 44.21875 229.625 44.199219 C 229.136719 44.175781 228.621094 44.105469 228.078125 43.980469 C 227.535156 43.859375 226.976562 43.6875 226.398438 43.46875 C 225.824219 43.25 225.242188 42.988281 224.652344 42.679688 C 224.066406 42.371094 223.484375 42.027344 222.90625 41.640625 C 222.328125 41.257812 221.769531 40.84375 221.226562 40.398438 C 220.679688 39.953125 220.164062 39.484375 219.675781 38.996094 C 219.183594 38.503906 218.730469 38 218.316406 37.484375 C 217.898438 36.96875 217.523438 36.449219 217.195312 35.929688 C 216.867188 35.40625 216.589844 34.890625 216.363281 34.382812 C 216.136719 33.878906 215.964844 33.386719 215.851562 32.914062 C 215.734375 32.4375 215.675781 31.988281 215.671875 31.566406 C 215.671875 31.144531 215.726562 30.757812 215.839844 30.402344 C 215.953125 30.050781 216.121094 29.738281 216.34375 29.464844 C 216.566406 29.191406 216.84375 28.964844 217.167969 28.785156 C 217.492188 28.605469 217.863281 28.476562 218.277344 28.394531 C 218.691406 28.3125 219.140625 28.28125 219.628906 28.304688 C 220.117188 28.324219 220.632812 28.398438 221.175781 28.519531 C 221.71875 28.640625 222.277344 28.8125 222.855469 29.03125 C 223.429688 29.25 224.011719 29.515625 224.601562 29.820312 C 225.1875 30.128906 225.769531 30.476562 226.347656 30.859375 C 226.925781 31.242188 227.484375 31.65625 228.027344 32.101562 Z M 228.027344 32.101562"/><path fill="#F2E2E2" d="M 96.515625 226.628906 C 96.832031 227.175781 97.070312 227.734375 97.234375 228.3125 C 97.398438 228.886719 97.476562 229.433594 97.464844 229.953125 C 97.457031 230.472656 97.359375 230.925781 97.175781 231.308594 C 96.988281 231.695312 96.734375 231.980469 96.402344 232.171875 C 96.074219 232.363281 95.695312 232.441406 95.273438 232.410156 C 94.847656 232.375 94.40625 232.234375 93.949219 231.984375 C 93.496094 231.734375 93.058594 231.390625 92.640625 230.960938 C 92.226562 230.53125 91.859375 230.042969 91.546875 229.5 C 91.230469 228.953125 90.992188 228.394531 90.828125 227.820312 C 90.664062 227.242188 90.585938 226.695312 90.597656 226.175781 C 90.605469 225.65625 90.703125 225.203125 90.886719 224.820312 C 91.074219 224.4375 91.328125 224.148438 91.660156 223.957031 C 91.988281 223.769531 92.367188 223.6875 92.789062 223.722656 C 93.214844 223.753906 93.65625 223.894531 94.113281 224.148438 C 94.566406 224.398438 95.003906 224.738281 95.417969 225.167969 C 95.835938 225.597656 96.203125 226.085938 96.515625 226.628906 Z M 96.515625 226.628906"/><path fill="#F2E2E2" d="M 92.007812 204.019531 C 92.007812 204.539062 91.980469 205.054688 91.925781 205.566406 C 91.871094 206.074219 91.789062 206.570312 91.683594 207.050781 C 91.578125 207.53125 91.445312 207.988281 91.289062 208.421875 C 91.132812 208.851562 90.957031 209.253906 90.757812 209.621094 C 90.5625 209.988281 90.347656 210.316406 90.113281 210.605469 C 89.878906 210.894531 89.636719 211.140625 89.375 211.339844 C 89.117188 211.535156 88.851562 211.6875 88.578125 211.789062 C 88.300781 211.890625 88.023438 211.941406 87.746094 211.941406 C 87.464844 211.941406 87.1875 211.890625 86.914062 211.789062 C 86.640625 211.6875 86.371094 211.535156 86.113281 211.339844 C 85.855469 211.140625 85.609375 210.894531 85.378906 210.605469 C 85.144531 210.316406 84.929688 209.988281 84.730469 209.621094 C 84.535156 209.253906 84.355469 208.851562 84.203125 208.421875 C 84.046875 207.988281 83.914062 207.53125 83.808594 207.050781 C 83.699219 206.570312 83.621094 206.074219 83.566406 205.566406 C 83.511719 205.054688 83.484375 204.539062 83.484375 204.019531 C 83.484375 203.5 83.511719 202.984375 83.566406 202.472656 C 83.621094 201.964844 83.699219 201.46875 83.808594 200.988281 C 83.914062 200.507812 84.046875 200.050781 84.203125 199.617188 C 84.355469 199.1875 84.535156 198.785156 84.730469 198.417969 C 84.929688 198.050781 85.144531 197.722656 85.378906 197.433594 C 85.609375 197.144531 85.855469 196.898438 86.113281 196.699219 C 86.371094 196.503906 86.640625 196.351562 86.914062 196.25 C 87.1875 196.148438 87.464844 196.097656 87.746094 196.097656 C 88.023438 196.097656 88.300781 196.148438 88.578125 196.25 C 88.851562 196.351562 89.117188 196.503906 89.375 196.699219 C 89.636719 196.898438 89.878906 197.144531 90.113281 197.433594 C 90.347656 197.722656 90.5625 198.050781 90.757812 198.417969 C 90.957031 198.785156 91.132812 199.1875 91.289062 199.617188 C 91.445312 200.050781 91.578125 200.507812 91.683594 200.988281 C 91.789062 201.46875 91.871094 201.964844 91.925781 202.472656 C 91.980469 202.984375 92.007812 203.5 92.007812 204.019531 Z M 92.007812 204.019531"/><path fill="#F2E2E2" d="M 282.765625 223.972656 C 283.09375 224.164062 283.351562 224.453125 283.535156 224.835938 C 283.71875 225.21875 283.816406 225.671875 283.828125 226.191406 C 283.839844 226.710938 283.761719 227.257812 283.597656 227.835938 C 283.433594 228.410156 283.191406 228.972656 282.878906 229.515625 C 282.5625 230.058594 282.199219 230.546875 281.78125 230.976562 C 281.363281 231.410156 280.929688 231.75 280.472656 232 C 280.015625 232.25 279.578125 232.390625 279.152344 232.425781 C 278.726562 232.457031 278.351562 232.378906 278.019531 232.1875 C 277.691406 231.996094 277.433594 231.710938 277.25 231.328125 C 277.066406 230.941406 276.96875 230.492188 276.957031 229.972656 C 276.945312 229.453125 277.023438 228.902344 277.1875 228.328125 C 277.351562 227.75 277.59375 227.191406 277.90625 226.648438 C 278.222656 226.101562 278.585938 225.613281 279.003906 225.183594 C 279.421875 224.753906 279.855469 224.414062 280.3125 224.164062 C 280.769531 223.914062 281.207031 223.769531 281.632812 223.738281 C 282.058594 223.707031 282.433594 223.785156 282.765625 223.972656 Z M 282.765625 223.972656"/><path fill="#F2E2E2" d="M 290.945312 204.019531 C 290.945312 204.539062 290.917969 205.054688 290.863281 205.566406 C 290.808594 206.074219 290.730469 206.570312 290.621094 207.050781 C 290.515625 207.53125 290.382812 207.988281 290.226562 208.421875 C 290.070312 208.851562 289.894531 209.253906 289.699219 209.621094 C 289.5 209.988281 289.285156 210.316406 289.050781 210.605469 C 288.820312 210.894531 288.574219 211.140625 288.316406 211.339844 C 288.054688 211.535156 287.789062 211.6875 287.515625 211.789062 C 287.242188 211.890625 286.964844 211.941406 286.683594 211.941406 C 286.402344 211.941406 286.125 211.890625 285.851562 211.789062 C 285.578125 211.6875 285.3125 211.535156 285.050781 211.339844 C 284.792969 211.140625 284.546875 210.894531 284.316406 210.605469 C 284.082031 210.316406 283.867188 209.988281 283.667969 209.621094 C 283.472656 209.253906 283.292969 208.851562 283.140625 208.421875 C 282.984375 207.988281 282.851562 207.53125 282.746094 207.050781 C 282.636719 206.570312 282.558594 206.074219 282.503906 205.566406 C 282.449219 205.054688 282.421875 204.539062 282.421875 204.019531 C 282.421875 203.5 282.449219 202.984375 282.503906 202.472656 C 282.558594 201.964844 282.636719 201.46875 282.746094 200.988281 C 282.851562 200.507812 282.984375 200.050781 283.140625 199.617188 C 283.292969 199.1875 283.472656 198.785156 283.667969 198.417969 C 283.867188 198.050781 284.082031 197.722656 284.316406 197.433594 C 284.546875 197.144531 284.792969 196.898438 285.050781 196.699219 C 285.3125 196.503906 285.578125 196.351562 285.851562 196.25 C 286.125 196.148438 286.402344 196.097656 286.683594 196.097656 C 286.964844 196.097656 287.242188 196.148438 287.515625 196.25 C 287.789062 196.351562 288.054688 196.503906 288.316406 196.699219 C 288.574219 196.898438 288.820312 197.144531 289.050781 197.433594 C 289.285156 197.722656 289.5 198.050781 289.699219 198.417969 C 289.894531 198.785156 290.070312 199.1875 290.226562 199.617188 C 290.382812 200.050781 290.515625 200.507812 290.621094 200.988281 C 290.730469 201.46875 290.808594 201.964844 290.863281 202.472656 C 290.917969 202.984375 290.945312 203.5 290.945312 204.019531 Z M 290.945312 204.019531"/><path fill="#F2E2E2" d="M 119.085938 287.8125 C 119.695312 287.988281 120.289062 288.195312 120.871094 288.433594 C 121.449219 288.667969 122.003906 288.929688 122.53125 289.214844 C 123.058594 289.5 123.550781 289.800781 124.007812 290.125 C 124.464844 290.449219 124.875 290.789062 125.242188 291.136719 C 125.605469 291.488281 125.921875 291.84375 126.183594 292.207031 C 126.445312 292.570312 126.648438 292.929688 126.796875 293.292969 C 126.945312 293.652344 127.035156 294.007812 127.0625 294.355469 C 127.089844 294.699219 127.058594 295.03125 126.964844 295.351562 C 126.875 295.667969 126.722656 295.964844 126.511719 296.242188 C 126.304688 296.519531 126.039062 296.773438 125.71875 297 C 125.402344 297.222656 125.035156 297.421875 124.617188 297.585938 C 124.203125 297.753906 123.746094 297.886719 123.25 297.984375 C 122.753906 298.085938 122.226562 298.148438 121.667969 298.179688 C 121.109375 298.207031 120.53125 298.203125 119.933594 298.160156 C 119.332031 298.117188 118.726562 298.039062 118.109375 297.929688 C 117.496094 297.816406 116.882812 297.671875 116.273438 297.496094 C 115.660156 297.320312 115.066406 297.113281 114.488281 296.878906 C 113.90625 296.640625 113.351562 296.382812 112.824219 296.097656 C 112.296875 295.8125 111.804688 295.507812 111.347656 295.183594 C 110.894531 294.859375 110.480469 294.523438 110.117188 294.171875 C 109.75 293.820312 109.4375 293.464844 109.175781 293.101562 C 108.914062 292.738281 108.707031 292.378906 108.558594 292.015625 C 108.410156 291.65625 108.324219 291.300781 108.296875 290.953125 C 108.265625 290.609375 108.296875 290.277344 108.390625 289.957031 C 108.484375 289.640625 108.632812 289.34375 108.84375 289.066406 C 109.054688 288.789062 109.316406 288.535156 109.636719 288.3125 C 109.957031 288.085938 110.324219 287.890625 110.738281 287.722656 C 111.152344 287.558594 111.609375 287.425781 112.105469 287.324219 C 112.601562 287.226562 113.128906 287.160156 113.6875 287.132812 C 114.246094 287.101562 114.824219 287.109375 115.425781 287.148438 C 116.023438 287.191406 116.628906 287.269531 117.246094 287.378906 C 117.863281 287.492188 118.476562 287.636719 119.085938 287.8125 Z M 119.085938 287.8125"/><path fill="#F2E2E2" d="M 264.617188 289.976562 C 264.710938 290.292969 264.742188 290.625 264.714844 290.972656 C 264.6875 291.316406 264.597656 291.671875 264.449219 292.035156 C 264.300781 292.394531 264.097656 292.757812 263.835938 293.121094 C 263.574219 293.484375 263.257812 293.839844 262.894531 294.1875 C 262.527344 294.539062 262.117188 294.875 261.660156 295.199219 C 261.207031 295.523438 260.714844 295.828125 260.183594 296.113281 C 259.65625 296.398438 259.101562 296.660156 258.523438 296.894531 C 257.941406 297.128906 257.347656 297.335938 256.738281 297.515625 C 256.128906 297.691406 255.515625 297.835938 254.898438 297.945312 C 254.285156 298.058594 253.675781 298.136719 253.078125 298.175781 C 252.476562 298.21875 251.898438 298.226562 251.339844 298.195312 C 250.78125 298.167969 250.253906 298.101562 249.757812 298.003906 C 249.261719 297.902344 248.804688 297.769531 248.390625 297.605469 C 247.976562 297.4375 247.609375 297.242188 247.289062 297.015625 C 246.972656 296.789062 246.707031 296.539062 246.496094 296.261719 C 246.289062 295.984375 246.136719 295.6875 246.042969 295.367188 C 245.953125 295.050781 245.917969 294.71875 245.949219 294.371094 C 245.976562 294.027344 246.0625 293.671875 246.210938 293.3125 C 246.359375 292.949219 246.566406 292.585938 246.828125 292.222656 C 247.089844 291.863281 247.402344 291.503906 247.769531 291.15625 C 248.136719 290.804688 248.546875 290.46875 249 290.144531 C 249.457031 289.820312 249.949219 289.515625 250.476562 289.230469 C 251.003906 288.945312 251.558594 288.683594 252.140625 288.449219 C 252.71875 288.214844 253.3125 288.007812 253.925781 287.832031 C 254.535156 287.652344 255.148438 287.507812 255.761719 287.398438 C 256.378906 287.285156 256.984375 287.207031 257.585938 287.167969 C 258.183594 287.125 258.761719 287.117188 259.320312 287.148438 C 259.878906 287.175781 260.40625 287.242188 260.902344 287.339844 C 261.398438 287.441406 261.855469 287.574219 262.269531 287.738281 C 262.6875 287.90625 263.054688 288.101562 263.371094 288.328125 C 263.691406 288.554688 263.957031 288.804688 264.164062 289.082031 C 264.375 289.359375 264.527344 289.65625 264.617188 289.976562 Z M 264.617188 289.976562"/></svg>